<svg class="size-6" fill="none" viewbox="0 0 24 24" xmlns="http://www.w3.org/2000/svg"><path clip-rule="evenodd" d="M15.5 8.35001C15.5 10.283 13.933 11.85 12 11.85C10.067 11.85 8.5 10.283 8.5 8.35001C8.5 6.41701 10.067 4.85001 12 4.85001C13.933 4.85001 15.5 6.41701 15.5 8.35001ZM16.5 8.35001C16.5 10.8353 14.4853 12.85 12 12.85C9.51472 12.85 7.5 10.8353 7.5 8.35001C7.5 5.86472 9.51472 3.85001 12 3.85001C14.4853 3.85001 16.5 5.86472 16.5 8.35001ZM5.75 19.15C5.75 16.6923 7.74233 14.7 10.2 14.7H13.8C16.2577 14.7 18.25 16.6923 18.25 19.15C18.25 19.4261 18.4739 19.65 18.75 19.65C19.0261 19.65 19.25 19.4261 19.25 19.15C19.25 16.14 16.81 13.7 13.8 13.7H10.2C7.19005 13.7 4.75 16.14 4.75 19.15C4.75 19.4261 4.97386 19.65 5.25 19.65C5.52614 19.65 5.75 19.4261 5.75 19.15Z" fill="currentColor" fill-rule="evenodd"></path></svg>